<mxfile host="app.diagrams.net" modified="2023-12-19T15:36:09.941Z" agent="Mozilla/5.0 (X11; Linux x86_64; rv:109.0) Gecko/20100101 Firefox/115.0" etag="l9tTlsj_ZTofEDP5RA0g" version="22.1.11" type="device">
  <diagram name="Page-1" id="nATrYY9oZouy03AZAWpR">
    <mxGraphModel dx="880" dy="478" grid="1" gridSize="10" guides="1" tooltips="1" connect="1" arrows="1" fold="1" page="1" pageScale="1" pageWidth="827" pageHeight="1169" math="0" shadow="0">
      <root>
        <mxCell id="0" />
        <mxCell id="1" parent="0" />
        <mxCell id="lnwaeVjhEDUr3R5FOjcd-1" value="Graphe de scène pour la vue bureau sélectionné" style="text;html=1;strokeColor=none;fillColor=none;align=center;verticalAlign=middle;whiteSpace=wrap;rounded=0;" vertex="1" parent="1">
          <mxGeometry x="260" y="60" width="350" height="30" as="geometry" />
        </mxCell>
        <mxCell id="lnwaeVjhEDUr3R5FOjcd-5" style="edgeStyle=orthogonalEdgeStyle;rounded=0;orthogonalLoop=1;jettySize=auto;html=1;exitX=0.5;exitY=1;exitDx=0;exitDy=0;entryX=0.5;entryY=0;entryDx=0;entryDy=0;" edge="1" parent="1" source="lnwaeVjhEDUr3R5FOjcd-2" target="lnwaeVjhEDUr3R5FOjcd-4">
          <mxGeometry relative="1" as="geometry" />
        </mxCell>
        <mxCell id="lnwaeVjhEDUr3R5FOjcd-2" value="StackPane" style="rounded=0;whiteSpace=wrap;html=1;" vertex="1" parent="1">
          <mxGeometry x="375" y="140" width="120" height="60" as="geometry" />
        </mxCell>
        <mxCell id="lnwaeVjhEDUr3R5FOjcd-3" value="(avec une tache racine qui est parent de deux taches)" style="text;html=1;align=center;verticalAlign=middle;resizable=0;points=[];autosize=1;strokeColor=none;fillColor=none;" vertex="1" parent="1">
          <mxGeometry x="280" y="90" width="310" height="30" as="geometry" />
        </mxCell>
        <mxCell id="lnwaeVjhEDUr3R5FOjcd-7" style="edgeStyle=orthogonalEdgeStyle;rounded=0;orthogonalLoop=1;jettySize=auto;html=1;exitX=0.5;exitY=1;exitDx=0;exitDy=0;" edge="1" parent="1" source="lnwaeVjhEDUr3R5FOjcd-4" target="lnwaeVjhEDUr3R5FOjcd-6">
          <mxGeometry relative="1" as="geometry" />
        </mxCell>
        <mxCell id="lnwaeVjhEDUr3R5FOjcd-4" value="GridPane" style="rounded=0;whiteSpace=wrap;html=1;" vertex="1" parent="1">
          <mxGeometry x="375" y="260" width="120" height="60" as="geometry" />
        </mxCell>
        <mxCell id="lnwaeVjhEDUr3R5FOjcd-10" style="edgeStyle=orthogonalEdgeStyle;rounded=0;orthogonalLoop=1;jettySize=auto;html=1;exitX=0.5;exitY=1;exitDx=0;exitDy=0;" edge="1" parent="1" source="lnwaeVjhEDUr3R5FOjcd-6" target="lnwaeVjhEDUr3R5FOjcd-9">
          <mxGeometry relative="1" as="geometry" />
        </mxCell>
        <mxCell id="lnwaeVjhEDUr3R5FOjcd-11" style="edgeStyle=orthogonalEdgeStyle;rounded=0;orthogonalLoop=1;jettySize=auto;html=1;exitX=0.5;exitY=1;exitDx=0;exitDy=0;" edge="1" parent="1" source="lnwaeVjhEDUr3R5FOjcd-6" target="lnwaeVjhEDUr3R5FOjcd-8">
          <mxGeometry relative="1" as="geometry" />
        </mxCell>
        <mxCell id="lnwaeVjhEDUr3R5FOjcd-6" value="&lt;div&gt;GridPane&lt;/div&gt;&lt;div&gt;(racine)&lt;br&gt;&lt;/div&gt;" style="rounded=0;whiteSpace=wrap;html=1;" vertex="1" parent="1">
          <mxGeometry x="375" y="380" width="120" height="60" as="geometry" />
        </mxCell>
        <mxCell id="lnwaeVjhEDUr3R5FOjcd-8" value="&lt;div&gt;GridPane&lt;/div&gt;&lt;div&gt;(tache1)&lt;br&gt;&lt;/div&gt;" style="rounded=0;whiteSpace=wrap;html=1;" vertex="1" parent="1">
          <mxGeometry x="260" y="490" width="120" height="60" as="geometry" />
        </mxCell>
        <mxCell id="lnwaeVjhEDUr3R5FOjcd-9" value="&lt;div&gt;TreeItem&lt;/div&gt;&lt;div&gt;(tache2)&lt;br&gt;&lt;/div&gt;" style="rounded=0;whiteSpace=wrap;html=1;" vertex="1" parent="1">
          <mxGeometry x="495" y="490" width="120" height="60" as="geometry" />
        </mxCell>
      </root>
    </mxGraphModel>
  </diagram>
</mxfile>
